<svg xmlns="http://www.w3.org/2000/svg" viewBox="0 0 126.6 90.6"><defs><style>      .cls-1 {        fill: #e74c0a;      }      .cls-1, .cls-2, .cls-3, .cls-4, .cls-5, .cls-6, .cls-7, .cls-8, .cls-9, .cls-10, .cls-11, .cls-12, .cls-13, .cls-14, .cls-15, .cls-16, .cls-17, .cls-18, .cls-19, .cls-20, .cls-21, .cls-22, .cls-23, .cls-24, .cls-25, .cls-26, .cls-27, .cls-28, .cls-29, .cls-30, .cls-31, .cls-32, .cls-33, .cls-34, .cls-35, .cls-36, .cls-37, .cls-38, .cls-39, .cls-40, .cls-41, .cls-42, .cls-43, .cls-44, .cls-45, .cls-46, .cls-47, .cls-48, .cls-49, .cls-50, .cls-51, .cls-52, .cls-53, .cls-54, .cls-55 {        fill-rule: evenodd;      }      .cls-2 {        fill: #33a8e0;      }      .cls-3 {        fill: #3b3f92;      }      .cls-4 {        fill: #672181;      }      .cls-5 {        fill: #0067b0;      }      .cls-6 {        fill: #ddb800;      }      .cls-7 {        fill: #0096bb;      }      .cls-8 {        fill: #8f3289;      }      .cls-9 {        fill: #00953f;      }      .cls-10 {        fill: #ed7100;      }      .cls-11 {        fill: #010101;      }      .cls-12 {        fill: #c73c8e;      }      .cls-13 {        fill: #ea7805;      }      .cls-14 {        fill: #e7480b;      }      .cls-15 {        fill: #becf00;      }      .cls-16 {        fill: #354d9c;      }      .cls-17 {        fill: #e2000f;      }      .cls-18 {        fill: #00a344;      }      .cls-19 {        fill: #49b7a4;      }      .cls-20 {        fill: #008034;      }      .cls-21 {        fill: #8bbd20;      }      .cls-22 {        fill: #8c3b8d;      }      .cls-23 {        fill: #e39700;      }      .cls-24 {        fill: #e40049;      }      .cls-25 {        fill: #ffec00;      }      .cls-26 {        fill: #34ab5c;      }      .cls-27 {        fill: #00adb3;      }      .cls-28 {        fill: #345aa5;      }      .cls-29 {        fill: #f9b300;      }      .cls-30 {        fill: #e36203;      }      .cls-31 {        fill: #e40074;      }      .cls-32 {        fill: #80b824;      }      .cls-33 {        fill: #b22d87;      }      .cls-34 {        fill: #007eb3;      }      .cls-35 {        fill: #f08400;      }      .cls-36 {        fill: #f7bb39;      }      .cls-37 {        fill: #f5e600;      }      .cls-38 {        fill: #2f2482;      }      .cls-39 {        fill: #007cb8;      }      .cls-40 {        fill: #dfdc00;      }      .cls-41 {        fill: #42b9c0;      }      .cls-42 {        fill: #1a1a18;      }      .cls-43 {        fill: #e4013f;      }      .cls-44 {        fill: #3c4797;      }      .cls-45 {        fill: #572382;      }      .cls-46 {        fill: #c1cb00;      }      .cls-47 {        fill: #1e8ec2;      }      .cls-48 {        fill: #005faa;      }      .cls-49 {        fill: #35a7df;      }      .cls-50 {        fill: #47ab32;      }      .cls-51 {        fill: #ac4481;      }      .cls-52 {        fill: #7c6eaf;      }      .cls-53 {        fill: #ea6502;      }      .cls-54 {        fill: #0091b0;      }      .cls-55 {        fill: #f6a500;      }    </style></defs><g><g id="Calque_1"><g><path class="cls-11" d="M1.7,77.9h8.3v-1.5H3.5v-10.6h-1.7v12.1h0ZM16.1,76.3v-3.9h6.1v-1.5h-6.1v-3.7h6.8v-1.5h-8.6v12.1h8.8v-1.5h-7.1ZM28.3,77.9h5.1c3.9,0,6.6-2.5,6.6-6.1s-2.7-6.1-6.6-6.1h-5.1v12.1h0ZM30.1,76.3v-9.1h3.3c3,0,4.9,1.8,4.9,4.6s-1.9,4.6-4.9,4.6h-3.3ZM57.9,65.7l-4.1,9.4-4-9.4h-2.4l5.3,12.1h2.2l5.3-12.1h-2.3ZM63.8,77.9h2.3v-12.1h-2.3v12.1h0ZM75.5,78c3.3,0,4.9-1.7,4.9-3.6,0-4.5-7.2-2.8-7.2-5.4s.8-1.7,2.6-1.7,2.3.3,3.3,1l.7-1.8c-1.1-.7-2.6-1.1-4-1.1-3.3,0-4.9,1.7-4.9,3.6,0,4.5,7.2,2.8,7.2,5.4s-.8,1.6-2.7,1.6-3-.6-4-1.3l-.8,1.8c1,.9,2.9,1.5,4.8,1.5h0ZM90.3,78c3.3,0,5.3-1.9,5.3-5.5v-6.9h-2.2v6.8c0,2.5-1.1,3.6-3.1,3.6s-3.1-1.1-3.1-3.6v-6.8h-2.3v6.9c0,3.5,2,5.5,5.3,5.5h0ZM110,77.9h2.4l-5.5-12.1h-2.2l-5.5,12.1h2.3l1.2-2.8h6.1l1.2,2.8h0ZM103.4,73.3l2.3-5.3,2.3,5.3h-4.6ZM116.3,77.9h8.6v-1.9h-6.4v-10.2h-2.3v12.1Z"></path><path class="cls-11" d="M24.3,90.5h1.1v-6h-1.1v6h0ZM33.7,84.4v4.1l-3.3-4.1h-.9v6h1.1v-4.1l3.3,4.1h.9v-6h-1.1ZM43.1,84.4v4.1l-3.3-4.1h-.9v6h1.1v-4.1l3.3,4.1h.9v-6h-1.1ZM51,90.6c1.9,0,3.3-1.3,3.3-3.1s-1.4-3.1-3.3-3.1-3.3,1.3-3.3,3.1,1.4,3.1,3.3,3.1h0ZM51,89.6c-1.2,0-2.1-.9-2.1-2.1s.9-2.1,2.1-2.1,2.1.9,2.1,2.1-.9,2.1-2.1,2.1h0ZM62.1,84.4l-2,4.7-2-4.7h-1.2l2.6,6h1.1l2.6-6h-1.1ZM70.5,90.5h1.2l-2.7-6h-1.1l-2.7,6h1.2l.6-1.4h3l.6,1.4h0ZM67.3,88.2l1.1-2.6,1.1,2.6h-2.3ZM75.8,90.5h1.1v-5.1h2v-.9h-5.1v.9h2v5.1h0ZM82.1,90.5h1.1v-6h-1.1v6h0ZM90.1,90.6c1.9,0,3.3-1.3,3.3-3.1s-1.4-3.1-3.3-3.1-3.3,1.3-3.3,3.1,1.4,3.1,3.3,3.1h0ZM90.1,89.6c-1.2,0-2.1-.9-2.1-2.1s.9-2.1,2.1-2.1,2.1.9,2.1,2.1-.9,2.1-2.1,2.1h0ZM101.2,84.4v4.1l-3.3-4.1h-.9v6h1.1v-4.1l3.3,4.1h.9v-6h-1.1Z"></path><g><polygon class="cls-42" points="97.6 18.2 99 19.2 98.8 20.4 97.7 20.9 96.4 20.4 96.5 19.1 97.6 18.2"></polygon><polygon class="cls-52" points="94.2 18 97.5 15.7 97.6 18.2 96.5 19.1 94.2 18"></polygon><polygon class="cls-46" points="94.2 18 89.7 5.7 96.6 9.8 94.2 18"></polygon><polygon class="cls-50" points="87 16.6 78.5 14.9 89.7 5.7 87 16.6"></polygon><polygon class="cls-18" points="80.2 0 78.5 14.9 89.7 5.7 80.2 0"></polygon><polygon class="cls-9" points="80.2 0 78.5 14.9 69.4 0 80.2 0"></polygon><polygon class="cls-9" points="70.6 10.8 77.8 21.5 68.9 16.8 70.6 10.8"></polygon><polygon class="cls-32" points="59.2 4.7 68.9 16.8 57.4 10.8 59.2 4.7"></polygon><polygon class="cls-15" points="45.5 7.2 57.4 10.8 47.4 15.1 45.5 7.2"></polygon><polygon class="cls-37" points="38.7 10.1 47.4 15.1 40.7 18 38.7 10.1"></polygon><polygon class="cls-29" points="31.1 20.3 40.7 18 35 25.2 31.1 20.3"></polygon><polygon class="cls-35" points="25.7 27.9 35 25.2 27.5 34.7 25.7 27.9"></polygon><polygon class="cls-32" points="87 16.6 89.7 5.7 94.2 18 87 16.6"></polygon><polygon class="cls-9" points="94.2 18 78.5 14.9 93.9 21.9 94.2 18"></polygon><polygon class="cls-49" points="101.4 18.4 97.5 15.7 97.6 18.2 99 19.2 101.4 18.4"></polygon><polygon class="cls-23" points="101.4 18.4 97.5 15.7 104.1 14.4 107.7 20.3 101.4 18.4"></polygon><polygon class="cls-13" points="101.4 18.4 107.7 20.3 111.3 26.3 101.1 21.9 101.4 18.4"></polygon><polygon class="cls-14" points="97.7 23.5 101.4 29 111.3 26.3 101.1 21.9 97.7 23.5"></polygon><polygon class="cls-43" points="97.7 23.5 101.4 29 93.3 31.1 93.9 21.9 97.7 23.5"></polygon><polygon class="cls-53" points="93.3 31.1 84.2 25.7 88.6 19.5 93.9 21.9 93.3 31.1"></polygon><polygon class="cls-12" points="93.3 31.1 84.2 25.7 77.8 21.5 88.6 33.5 93.3 31.1"></polygon><polygon class="cls-34" points="93.3 34.7 94.5 44.9 88.6 33.5 93.3 34.7"></polygon><polygon class="cls-28" points="85 41.9 94.5 44.9 88.6 33.5 85 41.9"></polygon><polygon class="cls-22" points="85 41.9 77.8 21.5 88.6 33.5 85 41.9"></polygon><polygon class="cls-45" points="85 41.9 77.8 21.5 79 45.5 85 41.9"></polygon><polygon class="cls-44" points="69.4 44.3 77.8 21.5 79 45.5 69.4 44.3"></polygon><polygon class="cls-5" points="69.4 44.3 76.6 55.6 79 45.5 69.4 44.3"></polygon><polygon class="cls-16" points="79 52.1 76.6 55.6 79 45.5 79 52.1"></polygon><polygon class="cls-54" points="79 52.1 76.6 55.6 86.2 55.6 85 53.3 79 52.1"></polygon><polygon class="cls-5" points="69.4 44.3 77.8 21.5 68.9 16.8 69.4 44.3"></polygon><polygon class="cls-54" points="69.4 44.3 57.4 10.8 68.9 16.8 69.4 44.3"></polygon><polygon class="cls-27" points="69.4 44.3 57.4 10.8 58.6 45.5 69.4 44.3"></polygon><polygon class="cls-19" points="47.9 41.3 57.4 10.8 58.6 45.5 47.9 41.3"></polygon><polygon class="cls-26" points="47.9 41.3 57.4 10.8 47.4 15.1 47.9 41.3"></polygon><polygon class="cls-21" points="47.9 41.3 40.7 18 47.4 15.1 47.9 41.3"></polygon><polygon class="cls-40" points="47.9 41.3 40.7 18 35 25.2 47.9 41.3"></polygon><polygon class="cls-55" points="47.9 41.3 27.5 34.7 35 25.2 47.9 41.3"></polygon><polygon class="cls-35" points="47.9 41.3 27.5 34.7 37.5 42 47.9 41.3"></polygon><polygon class="cls-30" points="26.3 40.7 27.5 34.7 37.5 42 26.3 40.7"></polygon><polygon class="cls-1" points="26.3 40.7 29.9 51.5 37.5 42 26.3 40.7"></polygon><polygon class="cls-17" points="26.3 40.7 29.9 51.5 21.5 47.9 26.3 40.7"></polygon><polygon class="cls-24" points="23.8 55 29.9 51.5 21.5 47.9 23.8 55"></polygon><polygon class="cls-31" points="23.8 55 12 50.3 21.5 47.9 23.8 55"></polygon><polygon class="cls-33" points="23.8 55 12 50.3 10.8 56.2 23.8 55"></polygon><polygon class="cls-8" points="0 45.5 12 50.3 10.8 56.2 0 45.5"></polygon><polygon class="cls-4" points="0 45.5 12 50.3 4.8 44.3 0 45.5"></polygon><polygon class="cls-3" points="0 45.5 4.8 32.3 4.8 44.3 0 45.5"></polygon><polygon class="cls-48" points="7.2 34.7 4.8 32.3 4.8 44.3 7.2 34.7"></polygon><path class="cls-39" d="M7.2,34.7l-2.4-2.4,9.4-4v1.2l-7,5.2h0ZM14.2,28.3v1.2l3.7-2.8-3.7,1.6Z"></path><path class="cls-47" d="M7.2,34.7l7-1.8v-3.5l-7,5.2h0ZM14.2,33v-3.5l3.7-2.8-1.2,5.6-2.6.6Z"></path><polygon class="cls-2" points="22.7 33.5 16.8 32.3 17.9 26.7 22.7 33.5"></polygon><polygon class="cls-41" points="22.7 33.5 16.8 32.3 14.4 44.3 22.7 33.5"></polygon><polygon class="cls-10" points="47.9 41.3 44.3 52.1 37.5 42 47.9 41.3"></polygon><polygon class="cls-1" points="43.1 56.2 44.3 52.1 37.5 42 43.1 56.2"></polygon><polygon class="cls-17" points="43.1 56.2 44.3 52.1 48.4 54.5 49.1 56.3 43.1 56.2"></polygon><polygon class="cls-7" points="93.3 34.7 94.5 44.9 108.9 38.3 93.3 34.7"></polygon><polygon class="cls-6" points="88.6 19.5 78.5 14.9 84.2 25.7 88.6 19.5"></polygon><polygon class="cls-9" points="77.8 21.5 78.5 14.9 84.2 25.7 77.8 21.5"></polygon><polygon class="cls-36" points="97.5 15.7 104.1 14.4 96.6 9.8 94.2 18 97.5 15.7"></polygon><polygon class="cls-20" points="101.4 18.4 99 19.2 98.8 20.4 101.1 21.9 101.4 18.4"></polygon><polygon class="cls-19" points="98.8 20.4 97.7 20.9 97.7 23.5 101.1 21.9 98.8 20.4"></polygon><polygon class="cls-51" points="97.7 20.9 96.4 20.4 93.9 21.9 97.7 23.5 97.7 20.9"></polygon><polygon class="cls-36" points="93.9 21.9 94.2 18 96.5 19.1 96.4 20.4 93.9 21.9"></polygon><polygon class="cls-25" points="93.3 34.7 88.6 33.5 93.3 31.1 116.1 32.3 118.5 31.1 119.7 33 118.5 34.7 116.1 33.5 93.3 34.7"></polygon><path class="cls-17" d="M122.8,34.8c.5.3,1.1.1,1.4-.4.3-.5.1-1.1-.4-1.4-.5-.3-1.1-.1-1.4.4-.3.5-.1,1.1.4,1.4Z"></path><path class="cls-9" d="M123.9,32.8c.5.3,1.1.1,1.4-.4.3-.5.1-1.1-.4-1.4-.5-.3-1.1-.1-1.4.4-.3.5-.1,1.1.4,1.4Z"></path><path class="cls-38" d="M125.1,34.8c.5.3,1.1.1,1.4-.4.3-.5.1-1.1-.4-1.4-.5-.3-1.1-.1-1.4.4-.3.5-.1,1.1.4,1.4Z"></path></g><g><polygon class="cls-42" points="97.6 18.2 99 19.2 98.8 20.4 97.7 20.9 96.4 20.4 96.5 19.1 97.6 18.2"></polygon><polygon class="cls-52" points="94.2 18 97.5 15.7 97.6 18.2 96.5 19.1 94.2 18"></polygon><polygon class="cls-46" points="94.2 18 89.7 5.7 96.6 9.8 94.2 18"></polygon><polygon class="cls-50" points="87 16.6 78.5 14.9 89.7 5.7 87 16.6"></polygon><polygon class="cls-18" points="80.2 0 78.5 14.9 89.7 5.7 80.2 0"></polygon><polygon class="cls-9" points="80.2 0 78.5 14.9 69.4 0 80.2 0"></polygon><polygon class="cls-9" points="70.6 10.8 77.8 21.5 68.9 16.8 70.6 10.8"></polygon><polygon class="cls-32" points="59.2 4.7 68.9 16.8 57.4 10.8 59.2 4.7"></polygon><polygon class="cls-15" points="45.5 7.2 57.4 10.8 47.4 15.1 45.5 7.2"></polygon><polygon class="cls-37" points="38.7 10.1 47.4 15.1 40.7 18 38.7 10.1"></polygon><polygon class="cls-29" points="31.1 20.3 40.7 18 35 25.2 31.1 20.3"></polygon><polygon class="cls-35" points="25.7 27.9 35 25.2 27.5 34.7 25.7 27.9"></polygon><polygon class="cls-32" points="87 16.6 89.7 5.7 94.2 18 87 16.6"></polygon><polygon class="cls-9" points="94.2 18 78.5 14.9 93.9 21.9 94.2 18"></polygon><polygon class="cls-49" points="101.4 18.4 97.5 15.7 97.6 18.2 99 19.2 101.4 18.4"></polygon><polygon class="cls-23" points="101.4 18.4 97.5 15.7 104.1 14.4 107.7 20.3 101.4 18.4"></polygon><polygon class="cls-13" points="101.4 18.4 107.7 20.3 111.3 26.3 101.1 21.9 101.4 18.4"></polygon><polygon class="cls-14" points="97.7 23.5 101.4 29 111.3 26.3 101.1 21.9 97.7 23.5"></polygon><polygon class="cls-43" points="97.7 23.5 101.4 29 93.3 31.1 93.9 21.9 97.7 23.5"></polygon><polygon class="cls-53" points="93.3 31.1 84.2 25.7 88.6 19.5 93.9 21.9 93.3 31.1"></polygon><polygon class="cls-12" points="93.3 31.1 84.2 25.7 77.8 21.5 88.6 33.5 93.3 31.1"></polygon><polygon class="cls-34" points="93.3 34.7 94.5 44.9 88.6 33.5 93.3 34.7"></polygon><polygon class="cls-28" points="85 41.9 94.5 44.9 88.6 33.5 85 41.9"></polygon><polygon class="cls-22" points="85 41.9 77.8 21.5 88.6 33.5 85 41.9"></polygon><polygon class="cls-45" points="85 41.9 77.8 21.5 79 45.5 85 41.9"></polygon><polygon class="cls-44" points="69.4 44.3 77.8 21.5 79 45.5 69.4 44.3"></polygon><polygon class="cls-5" points="69.4 44.3 76.6 55.6 79 45.5 69.4 44.3"></polygon><polygon class="cls-16" points="79 52.1 76.6 55.6 79 45.5 79 52.1"></polygon><polygon class="cls-54" points="79 52.1 76.6 55.6 86.2 55.6 85 53.3 79 52.1"></polygon><polygon class="cls-5" points="69.4 44.3 77.8 21.5 68.9 16.8 69.4 44.3"></polygon><polygon class="cls-54" points="69.4 44.3 57.4 10.8 68.9 16.8 69.4 44.3"></polygon><polygon class="cls-27" points="69.4 44.3 57.4 10.8 58.6 45.5 69.4 44.3"></polygon><polygon class="cls-19" points="47.9 41.3 57.4 10.8 58.6 45.5 47.9 41.3"></polygon><polygon class="cls-26" points="47.9 41.3 57.4 10.8 47.4 15.1 47.9 41.3"></polygon><polygon class="cls-21" points="47.9 41.3 40.7 18 47.4 15.1 47.9 41.3"></polygon><polygon class="cls-40" points="47.9 41.3 40.7 18 35 25.2 47.9 41.3"></polygon><polygon class="cls-55" points="47.9 41.3 27.5 34.7 35 25.2 47.9 41.3"></polygon><polygon class="cls-35" points="47.9 41.3 27.5 34.7 37.5 42 47.9 41.3"></polygon><polygon class="cls-30" points="26.3 40.7 27.5 34.7 37.5 42 26.3 40.7"></polygon><polygon class="cls-1" points="26.3 40.7 29.9 51.5 37.5 42 26.3 40.7"></polygon><polygon class="cls-17" points="26.3 40.7 29.9 51.5 21.5 47.9 26.3 40.7"></polygon><polygon class="cls-24" points="23.8 55 29.9 51.5 21.5 47.9 23.8 55"></polygon><polygon class="cls-31" points="23.8 55 12 50.3 21.5 47.9 23.8 55"></polygon><polygon class="cls-33" points="23.8 55 12 50.3 10.8 56.2 23.8 55"></polygon><polygon class="cls-8" points="0 45.5 12 50.3 10.8 56.2 0 45.5"></polygon><polygon class="cls-4" points="0 45.5 12 50.3 4.8 44.3 0 45.5"></polygon><polygon class="cls-3" points="0 45.5 4.8 32.3 4.8 44.3 0 45.5"></polygon><polygon class="cls-48" points="7.2 34.7 4.8 32.3 4.8 44.3 7.2 34.7"></polygon><path class="cls-39" d="M7.2,34.7l-2.4-2.4,9.4-4v1.2l-7,5.2h0ZM14.2,28.3v1.2l3.7-2.8-3.7,1.6Z"></path><path class="cls-47" d="M7.2,34.7l7-1.8v-3.5l-7,5.2h0ZM14.2,33v-3.5l3.7-2.8-1.2,5.6-2.6.6Z"></path><polygon class="cls-2" points="22.7 33.5 16.8 32.3 17.9 26.7 22.7 33.5"></polygon><polygon class="cls-41" points="22.7 33.5 16.8 32.3 14.4 44.3 22.7 33.5"></polygon><polygon class="cls-10" points="47.9 41.3 44.3 52.1 37.5 42 47.9 41.3"></polygon><polygon class="cls-1" points="43.1 56.2 44.3 52.1 37.5 42 43.1 56.2"></polygon><polygon class="cls-17" points="43.1 56.2 44.3 52.1 48.4 54.5 49.1 56.3 43.1 56.2"></polygon><polygon class="cls-7" points="93.3 34.7 94.5 44.9 108.9 38.3 93.3 34.7"></polygon><polygon class="cls-6" points="88.6 19.5 78.5 14.9 84.2 25.7 88.6 19.5"></polygon><polygon class="cls-9" points="77.8 21.5 78.5 14.9 84.2 25.7 77.8 21.5"></polygon><polygon class="cls-36" points="97.5 15.7 104.1 14.4 96.6 9.8 94.2 18 97.5 15.7"></polygon><polygon class="cls-20" points="101.4 18.4 99 19.2 98.8 20.4 101.1 21.9 101.4 18.4"></polygon><polygon class="cls-19" points="98.8 20.4 97.7 20.9 97.7 23.5 101.1 21.9 98.8 20.4"></polygon><polygon class="cls-51" points="97.7 20.9 96.4 20.4 93.9 21.9 97.7 23.5 97.7 20.9"></polygon><polygon class="cls-36" points="93.9 21.9 94.2 18 96.5 19.1 96.4 20.4 93.9 21.9"></polygon><polygon class="cls-25" points="93.3 34.7 88.6 33.5 93.3 31.1 116.1 32.3 118.5 31.1 119.7 33 118.5 34.7 116.1 33.5 93.3 34.7"></polygon><path class="cls-17" d="M122.8,34.8c.5.3,1.1.1,1.4-.4.3-.5.1-1.1-.4-1.4-.5-.3-1.1-.1-1.4.4-.3.5-.1,1.1.4,1.4Z"></path><path class="cls-9" d="M123.9,32.8c.5.3,1.1.1,1.4-.4.3-.5.1-1.1-.4-1.4-.5-.3-1.1-.1-1.4.4-.3.5-.1,1.1.4,1.4Z"></path><path class="cls-38" d="M125.1,34.8c.5.3,1.1.1,1.4-.4.3-.5.1-1.1-.4-1.4-.5-.3-1.1-.1-1.4.4-.3.5-.1,1.1.4,1.4Z"></path></g></g></g></g></svg>